<svg width="16" height="16" viewBox="0 0 16 16" fill="none" xmlns="http://www.w3.org/2000/svg">
<path d="M1.00047 12.4072H2.01303M1.00047 9.77084H2.01303M1.00047 0.999023V15.0018H15.0033M1 2.03353H2.01256M1 4.61837H2.01256M1 7.18259H2.01256" stroke="white" stroke-miterlimit="6" stroke-linecap="round" stroke-linejoin="round"/>
<path d="M5.43517 11.0936C5.43515 11.3641 5.32767 11.6236 5.13639 11.8149C4.9451 12.0062 4.68567 12.1136 4.41514 12.1137C4.14461 12.1137 3.88515 12.0062 3.69384 11.8149C3.50253 11.6236 3.39504 11.3642 3.39502 11.0936C3.39502 10.8231 3.5025 10.5636 3.69381 10.3723C3.88512 10.181 4.14459 10.0735 4.41514 10.0735C4.68568 10.0735 4.94513 10.181 5.13642 10.3723C5.32771 10.5636 5.43517 10.8231 5.43517 11.0936ZM7.91575 6.14183C7.91575 6.2758 7.88936 6.40846 7.83809 6.53223C7.78682 6.65601 7.71167 6.76847 7.61693 6.8632C7.5222 6.95793 7.40973 7.03307 7.28595 7.08433C7.16217 7.13559 7.02951 7.16197 6.89554 7.16195C6.62498 7.16195 6.36551 7.05448 6.1742 6.86317C5.98289 6.67185 5.87541 6.41238 5.87541 6.14183C5.87541 5.87127 5.98289 5.6118 6.1742 5.42049C6.36551 5.22918 6.62498 5.1217 6.89554 5.1217C7.16607 5.12173 7.42552 5.22922 7.61681 5.42053C7.8081 5.61183 7.91557 5.87129 7.91557 6.14183H7.91575ZM12.0386 9.58539C12.0386 9.85592 11.9311 10.1154 11.7398 10.3067C11.5485 10.498 11.2891 10.6054 11.0185 10.6054C10.748 10.6054 10.4886 10.4979 10.2973 10.3066C10.106 10.1153 9.99851 9.85591 9.99848 9.58539C9.99848 9.31485 10.1059 9.05539 10.2972 8.86408C10.4885 8.67278 10.748 8.56529 11.0185 8.56526C11.2891 8.56526 11.5485 8.67274 11.7399 8.86405C11.9312 9.05536 12.0386 9.31483 12.0386 9.58539ZM14.0827 2.64112C14.0827 2.91168 13.9752 3.17115 13.7839 3.36246C13.5926 3.55377 13.3331 3.66125 13.0625 3.66125C12.792 3.66125 12.5325 3.55377 12.3412 3.36246C12.1499 3.17115 12.0424 2.91168 12.0424 2.64112C12.0424 2.37059 12.1499 2.11114 12.3412 1.91985C12.5326 1.72856 12.792 1.62109 13.0625 1.62109C13.3331 1.62112 13.5925 1.72859 13.7838 1.91988C13.9751 2.11117 14.0826 2.3706 14.0826 2.64112H14.0827Z" stroke="white" stroke-miterlimit="6" stroke-linecap="round" stroke-linejoin="round"/>
<path d="M5.01172 10.1004L6.34738 7.13316M7.77415 6.90381L10.0764 8.90243M11.3696 8.51764L12.8389 3.56055" stroke="white" stroke-miterlimit="6" stroke-linecap="round" stroke-linejoin="round"/>
</svg>
