<svg width="13" height="12" viewBox="0 0 13 12" fill="none" xmlns="http://www.w3.org/2000/svg">
<path d="M11.6667 5.99935H5.33333M10.3333 7.99935L12.3333 5.99935L10.3333 3.99935M7 2.66602V1.99935C7 1.64573 6.85952 1.30659 6.60948 1.05654C6.35943 0.806491 6.02029 0.666016 5.66667 0.666016H2.33333C1.97971 0.666016 1.64057 0.806491 1.39052 1.05654C1.14048 1.30659 1 1.64573 1 1.99935V9.99935C1 10.353 1.14048 10.6921 1.39052 10.9422C1.64057 11.1922 1.97971 11.3327 2.33333 11.3327H5.66667C6.02029 11.3327 6.35943 11.1922 6.60948 10.9422C6.85952 10.6921 7 10.353 7 9.99935V9.33268" stroke="#095CC9" stroke-linecap="round" stroke-linejoin="round"/>
</svg>
