<svg width="15" height="14" viewBox="0 0 15 14" fill="none" xmlns="http://www.w3.org/2000/svg">
<g clip-path="url(#clip0_7_5417)">
<path d="M7.9375 8.75H7.0625V10.5H7.9375V8.75Z" fill="white"/>
<path d="M10.125 7.875H9.25V10.5H10.125V7.875Z" fill="white"/>
<path d="M5.75 6.125H4.875V10.5H5.75V6.125Z" fill="white"/>
<path d="M11.4375 2.1875H10.125V1.75C10.125 1.51794 10.0328 1.29538 9.86872 1.13128C9.70462 0.967187 9.48206 0.875 9.25 0.875H5.75C5.51794 0.875 5.29538 0.967187 5.13128 1.13128C4.96719 1.29538 4.875 1.51794 4.875 1.75V2.1875H3.5625C3.33044 2.1875 3.10788 2.27969 2.94378 2.44378C2.77969 2.60788 2.6875 2.83044 2.6875 3.0625V12.25C2.6875 12.4821 2.77969 12.7046 2.94378 12.8687C3.10788 13.0328 3.33044 13.125 3.5625 13.125H11.4375C11.6696 13.125 11.8921 13.0328 12.0562 12.8687C12.2203 12.7046 12.3125 12.4821 12.3125 12.25V3.0625C12.3125 2.83044 12.2203 2.60788 12.0562 2.44378C11.8921 2.27969 11.6696 2.1875 11.4375 2.1875ZM5.75 1.75H9.25V3.5H5.75V1.75ZM11.4375 12.25H3.5625V3.0625H4.875V4.375H10.125V3.0625H11.4375V12.25Z" fill="white"/>
</g>
<defs>
<clipPath id="clip0_7_5417">
<rect width="14" height="14" fill="white" transform="translate(0.5)"/>
</clipPath>
</defs>
</svg>
