<svg width="14" height="12" viewBox="0 0 14 12" fill="none" xmlns="http://www.w3.org/2000/svg">
<path d="M7.72222 10.7988V9.54883C7.72222 7.82295 6.10546 6.42383 4.11111 6.42383C2.11675 6.42383 0.5 7.82295 0.5 9.54883V10.7988H7.72222ZM7.72222 10.7988H13.5V10.1738C13.5 8.33289 11.8832 7.04883 9.88889 7.04883C8.86817 7.04883 7.94633 7.43977 7.28954 8.06827M6.27778 2.67383C6.27778 3.70936 5.30773 4.54883 4.11111 4.54883C2.9145 4.54883 1.94444 3.70936 1.94444 2.67383C1.94444 1.6383 2.9145 0.798828 4.11111 0.798828C5.30773 0.798828 6.27778 1.6383 6.27778 2.67383ZM11.3333 3.92383C11.3333 4.6142 10.6867 5.17383 9.88889 5.17383C9.09112 5.17383 8.44444 4.6142 8.44444 3.92383C8.44444 3.23347 9.09112 2.67383 9.88889 2.67383C10.6867 2.67383 11.3333 3.23347 11.3333 3.92383Z" stroke="white" stroke-linecap="round" stroke-linejoin="round"/>
</svg>
