<svg width="14" height="14" viewBox="0 0 14 14" fill="none" xmlns="http://www.w3.org/2000/svg">
<path d="M4.35969 1.49969C4.72419 1.49969 5.01969 1.20419 5.01969 0.839687C5.01969 0.475183 4.72419 0.179688 4.35969 0.179688V1.49969ZM0.179688 6.11969C0.179688 6.48418 0.475183 6.77969 0.839687 6.77969C1.20419 6.77969 1.49969 6.48418 1.49969 6.11969H0.179688ZM4.35969 0.179688C3.99518 0.179688 3.69969 0.475183 3.69969 0.839687C3.69969 1.20419 3.99518 1.49969 4.35969 1.49969V0.179688ZM12.4997 6.11969C12.4997 6.48418 12.7952 6.77969 13.1597 6.77969C13.5242 6.77969 13.8197 6.48418 13.8197 6.11969H12.4997ZM5.01969 0.839687C5.01969 0.475183 4.72419 0.179688 4.35969 0.179688C3.99518 0.179688 3.69969 0.475183 3.69969 0.839687H5.01969ZM3.69969 6.11969C3.69969 6.48418 3.99518 6.77969 4.35969 6.77969C4.72419 6.77969 5.01969 6.48418 5.01969 6.11969H3.69969ZM4.35969 6.77969C4.72419 6.77969 5.01969 6.48418 5.01969 6.11969C5.01969 5.75519 4.72419 5.45969 4.35969 5.45969V6.77969ZM0.839687 5.45969C0.475183 5.45969 0.179688 5.75519 0.179688 6.11969C0.179688 6.48418 0.475183 6.77969 0.839687 6.77969V5.45969ZM4.35969 5.45969C3.99518 5.45969 3.69969 5.75519 3.69969 6.11969C3.69969 6.48418 3.99518 6.77969 4.35969 6.77969V5.45969ZM13.1597 6.77969C13.5242 6.77969 13.8197 6.48418 13.8197 6.11969C13.8197 5.75519 13.5242 5.45969 13.1597 5.45969V6.77969ZM1.49969 6.11969C1.49969 5.75519 1.20419 5.45969 0.839687 5.45969C0.475183 5.45969 0.179688 5.75519 0.179688 6.11969H1.49969ZM13.8197 6.11969C13.8197 5.75519 13.5242 5.45969 13.1597 5.45969C12.7952 5.45969 12.4997 5.75519 12.4997 6.11969H13.8197ZM4.35969 0.179688C2.05114 0.179688 0.179688 2.05114 0.179688 4.35969H1.49969C1.49969 2.78015 2.78015 1.49969 4.35969 1.49969V0.179688ZM0.179688 4.35969V6.11969H1.49969V4.35969H0.179688ZM4.35969 1.49969H9.63969V0.179688H4.35969V1.49969ZM9.63969 1.49969C11.2192 1.49969 12.4997 2.78015 12.4997 4.35969H13.8197C13.8197 2.05114 11.9483 0.179688 9.63969 0.179688V1.49969ZM12.4997 4.35969V6.11969H13.8197V4.35969H12.4997ZM3.69969 0.839687V6.11969H5.01969V0.839687H3.69969ZM4.35969 5.45969H0.839687V6.77969H4.35969V5.45969ZM4.35969 6.77969H13.1597V5.45969H4.35969V6.77969ZM0.179688 6.11969V9.63969H1.49969V6.11969H0.179688ZM0.179688 9.63969C0.179688 11.9483 2.05114 13.8197 4.35969 13.8197V12.4997C2.78015 12.4997 1.49969 11.2192 1.49969 9.63969H0.179688ZM4.35969 13.8197H9.63969V12.4997H4.35969V13.8197ZM9.63969 13.8197C11.9483 13.8197 13.8197 11.9483 13.8197 9.63969H12.4997C12.4997 11.2192 11.2192 12.4997 9.63969 12.4997V13.8197ZM13.8197 9.63969V6.11969H12.4997V9.63969H13.8197Z" fill="white"/>
</svg>
