<svg width="15" height="12" viewBox="0 0 15 12" fill="none" xmlns="http://www.w3.org/2000/svg">
<path d="M8.22222 10.7988V9.54883C8.22222 7.82295 6.60546 6.42383 4.61111 6.42383C2.61675 6.42383 1 7.82295 1 9.54883V10.7988H8.22222ZM8.22222 10.7988H14V10.1738C14 8.33289 12.3832 7.04883 10.3889 7.04883C9.36817 7.04883 8.44633 7.43977 7.78954 8.06827M6.77778 2.67383C6.77778 3.70936 5.80773 4.54883 4.61111 4.54883C3.4145 4.54883 2.44444 3.70936 2.44444 2.67383C2.44444 1.6383 3.4145 0.798828 4.61111 0.798828C5.80773 0.798828 6.77778 1.6383 6.77778 2.67383ZM11.8333 3.92383C11.8333 4.6142 11.1867 5.17383 10.3889 5.17383C9.59112 5.17383 8.94444 4.6142 8.94444 3.92383C8.94444 3.23347 9.59112 2.67383 10.3889 2.67383C11.1867 2.67383 11.8333 3.23347 11.8333 3.92383Z" stroke="white" stroke-linecap="round" stroke-linejoin="round"/>
</svg>
