<svg width="16" height="16" viewBox="0 0 16 16" fill="none" xmlns="http://www.w3.org/2000/svg">
<path d="M1.00047 12.4062H2.01303M1.00047 9.76987H2.01303M1.00047 0.998047V15.0009H15.0033M1 2.03255H2.01256M1 4.6174H2.01256M1 7.18162H2.01256" stroke="#095CC9" stroke-miterlimit="6" stroke-linecap="round" stroke-linejoin="round"/>
<path d="M5.43469 11.0936C5.43466 11.3641 5.32719 11.6236 5.1359 11.8149C4.94461 12.0062 4.68518 12.1136 4.41466 12.1137C4.14412 12.1137 3.88466 12.0062 3.69335 11.8149C3.50204 11.6236 3.39456 11.3642 3.39453 11.0936C3.39453 10.8231 3.50201 10.5636 3.69332 10.3723C3.88463 10.181 4.1441 10.0735 4.41466 10.0735C4.68519 10.0735 4.94464 10.181 5.13593 10.3723C5.32722 10.5636 5.43469 10.8231 5.43469 11.0936ZM7.91527 6.14183C7.91527 6.2758 7.88888 6.40846 7.8376 6.53223C7.78633 6.65601 7.71118 6.76847 7.61645 6.8632C7.52171 6.95793 7.40924 7.03307 7.28546 7.08433C7.16168 7.13559 7.02902 7.16197 6.89505 7.16195C6.62449 7.16195 6.36502 7.05448 6.17371 6.86317C5.9824 6.67185 5.87492 6.41238 5.87492 6.14183C5.87492 5.87127 5.9824 5.6118 6.17371 5.42049C6.36502 5.22918 6.62449 5.1217 6.89505 5.1217C7.16558 5.12173 7.42503 5.22922 7.61632 5.42053C7.80761 5.61183 7.91508 5.87129 7.91508 6.14183H7.91527ZM12.0382 9.58539C12.0381 9.85592 11.9306 10.1154 11.7393 10.3067C11.548 10.498 11.2886 10.6054 11.018 10.6054C10.7475 10.6054 10.4881 10.4979 10.2968 10.3066C10.1055 10.1153 9.99802 9.85591 9.998 9.58539C9.998 9.31485 10.1055 9.05539 10.2968 8.86408C10.488 8.67278 10.7475 8.56529 11.018 8.56526C11.2886 8.56526 11.5481 8.67274 11.7394 8.86405C11.9307 9.05536 12.0382 9.31483 12.0382 9.58539ZM14.0822 2.64112C14.0822 2.91168 13.9747 3.17115 13.7834 3.36246C13.5921 3.55377 13.3326 3.66125 13.0621 3.66125C12.7915 3.66125 12.532 3.55377 12.3407 3.36246C12.1494 3.17115 12.0419 2.91168 12.0419 2.64112C12.042 2.37059 12.1494 2.11114 12.3408 1.91985C12.5321 1.72856 12.7915 1.62109 13.0621 1.62109C13.3326 1.62112 13.592 1.72859 13.7833 1.91988C13.9746 2.11117 14.0821 2.3706 14.0821 2.64112H14.0822Z" stroke="#095CC9" stroke-miterlimit="6" stroke-linecap="round" stroke-linejoin="round"/>
<path d="M5.01172 10.1004L6.34738 7.13316M7.77415 6.90381L10.0764 8.90243M11.3696 8.51764L12.8389 3.56055" stroke="#095CC9" stroke-miterlimit="6" stroke-linecap="round" stroke-linejoin="round"/>
</svg>
