<svg width="13" height="15" viewBox="0 0 13 15" fill="none" xmlns="http://www.w3.org/2000/svg">
<path d="M10.2899 1V2.26316M2.71094 1V2.26316" stroke="#141B34" stroke-linecap="round" stroke-linejoin="round"/>
<path d="M6.50005 7.94727H6.50571M6.50005 10.4736H6.50571M9.02353 7.94727H9.02919M3.97656 7.94727H3.98223M3.97656 10.4736H3.98223" stroke="#141B34" stroke-linecap="round" stroke-linejoin="round"/>
<path d="M1.13281 4.78906H11.8697" stroke="#141B34" stroke-linecap="round" stroke-linejoin="round"/>
<path d="M0.5 7.4687C0.5 4.71671 0.5 3.34072 1.29081 2.48579C2.08162 1.63086 3.35442 1.63086 5.9 1.63086H7.1C9.64558 1.63086 10.9184 1.63086 11.7092 2.48579C12.5 3.34072 12.5 4.71671 12.5 7.4687V7.79302C12.5 10.545 12.5 11.921 11.7092 12.7759C10.9184 13.6309 9.64558 13.6309 7.1 13.6309H5.9C3.35442 13.6309 2.08162 13.6309 1.29081 12.7759C0.5 11.921 0.5 10.545 0.5 7.79302V7.4687Z" stroke="#141B34" stroke-linecap="round" stroke-linejoin="round"/>
<path d="M0.8125 4.78906H12.1809" stroke="#141B34" stroke-linecap="round" stroke-linejoin="round"/>
</svg>
