<svg width="58" height="58" viewBox="0 0 58 58" fill="none" xmlns="http://www.w3.org/2000/svg">
<g filter="url(#filter0_d_7_6541)">
<path d="M36.5 23.0576H31.5V18.0576C31.5 17.3946 31.2366 16.7587 30.7678 16.2899C30.2989 15.821 29.663 15.5576 29 15.5576C28.337 15.5576 27.7011 15.821 27.2322 16.2899C26.7634 16.7587 26.5 17.3946 26.5 18.0576V23.0576H21.5C20.837 23.0576 20.2011 23.321 19.7322 23.7898C19.2634 24.2587 19 24.8946 19 25.5576C19 26.2207 19.2634 26.8565 19.7322 27.3254C20.2011 27.7942 20.837 28.0576 21.5 28.0576H26.5V33.0576C26.5 33.7207 26.7634 34.3565 27.2322 34.8254C27.7011 35.2942 28.337 35.5576 29 35.5576C29.663 35.5576 30.2989 35.2942 30.7678 34.8254C31.2366 34.3565 31.5 33.7207 31.5 33.0576V28.0576H36.5C37.163 28.0576 37.7989 27.7942 38.2678 27.3254C38.7366 26.8565 39 26.2207 39 25.5576C39 24.8946 38.7366 24.2587 38.2678 23.7898C37.7989 23.321 37.163 23.0576 36.5 23.0576Z" fill="white"/>
</g>
<g filter="url(#filter1_d_7_6541)">
<path d="M29 0C24.0555 0 19.222 1.46622 15.1108 4.21326C10.9995 6.96029 7.79521 10.8648 5.90302 15.4329C4.01083 20.0011 3.51575 25.0277 4.48038 29.8772C5.44501 34.7268 7.82603 39.1813 11.3223 42.6777C14.8187 46.174 19.2732 48.555 24.1228 49.5196C28.9723 50.4843 33.9989 49.9892 38.5671 48.097C43.1352 46.2048 47.0397 43.0005 49.7867 38.8892C52.5338 34.778 54 29.9445 54 25C54 21.7169 53.3534 18.466 52.097 15.4329C50.8406 12.3998 48.9991 9.64379 46.6777 7.32233C44.3562 5.00086 41.6002 3.15938 38.5671 1.90301C35.534 0.646644 32.2831 0 29 0ZM29 45C25.0444 45 21.1776 43.827 17.8886 41.6294C14.5996 39.4318 12.0362 36.3082 10.5224 32.6537C9.00867 28.9991 8.6126 24.9778 9.38431 21.0982C10.156 17.2186 12.0608 13.6549 14.8579 10.8579C17.6549 8.06081 21.2186 6.156 25.0982 5.38429C28.9778 4.61259 32.9992 5.00866 36.6537 6.52241C40.3082 8.03616 43.4318 10.5996 45.6294 13.8886C47.827 17.1776 49 21.0444 49 25C49 30.3043 46.8929 35.3914 43.1421 39.1421C39.3914 42.8929 34.3043 45 29 45Z" fill="white"/>
</g>
<defs>
<filter id="filter0_d_7_6541" x="15" y="15.5576" width="28" height="28" filterUnits="userSpaceOnUse" color-interpolation-filters="sRGB">
<feFlood flood-opacity="0" result="BackgroundImageFix"/>
<feColorMatrix in="SourceAlpha" type="matrix" values="0 0 0 0 0 0 0 0 0 0 0 0 0 0 0 0 0 0 127 0" result="hardAlpha"/>
<feOffset dy="4"/>
<feGaussianBlur stdDeviation="2"/>
<feComposite in2="hardAlpha" operator="out"/>
<feColorMatrix type="matrix" values="0 0 0 0 0 0 0 0 0 0 0 0 0 0 0 0 0 0 0.25 0"/>
<feBlend mode="normal" in2="BackgroundImageFix" result="effect1_dropShadow_7_6541"/>
<feBlend mode="normal" in="SourceGraphic" in2="effect1_dropShadow_7_6541" result="shape"/>
</filter>
<filter id="filter1_d_7_6541" x="0" y="0" width="58" height="58" filterUnits="userSpaceOnUse" color-interpolation-filters="sRGB">
<feFlood flood-opacity="0" result="BackgroundImageFix"/>
<feColorMatrix in="SourceAlpha" type="matrix" values="0 0 0 0 0 0 0 0 0 0 0 0 0 0 0 0 0 0 127 0" result="hardAlpha"/>
<feOffset dy="4"/>
<feGaussianBlur stdDeviation="2"/>
<feComposite in2="hardAlpha" operator="out"/>
<feColorMatrix type="matrix" values="0 0 0 0 0 0 0 0 0 0 0 0 0 0 0 0 0 0 0.25 0"/>
<feBlend mode="normal" in2="BackgroundImageFix" result="effect1_dropShadow_7_6541"/>
<feBlend mode="normal" in="SourceGraphic" in2="effect1_dropShadow_7_6541" result="shape"/>
</filter>
</defs>
</svg>
