<svg width="12" height="12" viewBox="0 0 12 12" fill="none" xmlns="http://www.w3.org/2000/svg">
<path d="M8.52417 2.26742C8.60268 2.18441 8.69704 2.11798 8.80166 2.07206C8.90629 2.02615 9.01905 2.00167 9.1333 2.00008C9.24754 1.99849 9.36095 2.01982 9.46681 2.06281C9.57267 2.1058 9.66884 2.16958 9.74963 2.25037C9.83042 2.33117 9.8942 2.42734 9.93719 2.5332C9.98018 2.63906 10.0015 2.75247 9.99992 2.86672C9.99833 2.98096 9.97385 3.09373 9.92794 3.19836C9.88202 3.30299 9.8156 3.39735 9.73259 3.47586L7.22798 5.98051C7.22466 5.98382 7.22203 5.98775 7.22024 5.99208C7.21844 5.99641 7.21752 6.00104 7.21752 6.00573C7.21752 6.01041 7.21844 6.01505 7.22024 6.01938C7.22203 6.02371 7.22466 6.02764 7.22798 6.03095L9.73259 8.5356C9.81304 8.61473 9.87702 8.709 9.92085 8.81299C9.96468 8.91697 9.98749 9.0286 9.98796 9.14145C9.98844 9.25429 9.96656 9.36611 9.92361 9.47045C9.88065 9.5748 9.81746 9.66961 9.73767 9.74941C9.65789 9.82921 9.5631 9.89243 9.45877 9.93541C9.35443 9.9784 9.24262 10.0003 9.12978 9.99985C9.01694 9.9994 8.9053 9.97662 8.80131 9.93281C8.69732 9.88901 8.60303 9.82504 8.52388 9.74461L6.01927 7.23996C6.01596 7.23664 6.01204 7.23401 6.00771 7.23222C6.00338 7.23042 5.99874 7.2295 5.99406 7.2295C5.98937 7.2295 5.98473 7.23042 5.98041 7.23222C5.97608 7.23401 5.97215 7.23664 5.96884 7.23996L3.46423 9.74461C3.3851 9.82506 3.29083 9.88905 3.18685 9.93288C3.08287 9.97671 2.97124 9.99952 2.8584 9.99999C2.74556 10.0005 2.63374 9.97859 2.52939 9.93563C2.42505 9.89267 2.33024 9.82948 2.25044 9.7497C2.17064 9.66991 2.10743 9.57512 2.06444 9.47078C2.02146 9.36645 1.99956 9.25463 2.00001 9.14179C2.00045 9.02895 2.02324 8.91731 2.06704 8.81332C2.11085 8.70932 2.17481 8.61503 2.25524 8.53588L4.75985 6.03123C4.76316 6.02792 4.7658 6.02399 4.76759 6.01967C4.76939 6.01534 4.77031 6.0107 4.77031 6.00601C4.77031 6.00133 4.76939 5.99669 4.76759 5.99236C4.7658 5.98804 4.76316 5.98411 4.75985 5.9808L2.25524 3.47615C2.09707 3.31541 2.00882 3.09869 2.00971 2.87318C2.0106 2.64767 2.10056 2.43165 2.26 2.27218C2.41944 2.1127 2.63543 2.02268 2.86094 2.02174C3.08644 2.02079 3.30318 2.10899 3.46395 2.26713L5.96855 4.77178C5.97186 4.7751 5.97579 4.77773 5.98012 4.77953C5.98445 4.78132 5.98909 4.78225 5.99377 4.78225C5.99846 4.78225 6.0031 4.78132 6.00742 4.77953C6.01175 4.77773 6.01568 4.7751 6.01899 4.77178L8.52417 2.26742Z" fill="#D20F19"/>
</svg>
