<svg width="22" height="22" viewBox="0 0 22 22" fill="none" xmlns="http://www.w3.org/2000/svg">
<path d="M8.36018 5.49969C8.72468 5.49969 9.02018 5.20419 9.02018 4.83969C9.02018 4.47518 8.72468 4.17969 8.36018 4.17969V5.49969ZM4.18018 10.1197C4.18018 10.4842 4.47567 10.7797 4.84018 10.7797C5.20468 10.7797 5.50018 10.4842 5.50018 10.1197H4.18018ZM8.36018 4.17969C7.99567 4.17969 7.70018 4.47518 7.70018 4.83969C7.70018 5.20419 7.99567 5.49969 8.36018 5.49969V4.17969ZM16.5002 10.1197C16.5002 10.4842 16.7957 10.7797 17.1602 10.7797C17.5247 10.7797 17.8202 10.4842 17.8202 10.1197H16.5002ZM9.02018 4.83969C9.02018 4.47518 8.72468 4.17969 8.36018 4.17969C7.99567 4.17969 7.70018 4.47518 7.70018 4.83969H9.02018ZM7.70018 10.1197C7.70018 10.4842 7.99567 10.7797 8.36018 10.7797C8.72468 10.7797 9.02018 10.4842 9.02018 10.1197H7.70018ZM8.36018 10.7797C8.72468 10.7797 9.02018 10.4842 9.02018 10.1197C9.02018 9.75519 8.72468 9.45969 8.36018 9.45969V10.7797ZM4.84018 9.45969C4.47567 9.45969 4.18018 9.75519 4.18018 10.1197C4.18018 10.4842 4.47567 10.7797 4.84018 10.7797V9.45969ZM8.36018 9.45969C7.99567 9.45969 7.70018 9.75519 7.70018 10.1197C7.70018 10.4842 7.99567 10.7797 8.36018 10.7797V9.45969ZM17.1602 10.7797C17.5247 10.7797 17.8202 10.4842 17.8202 10.1197C17.8202 9.75519 17.5247 9.45969 17.1602 9.45969V10.7797ZM5.50018 10.1197C5.50018 9.75519 5.20468 9.45969 4.84018 9.45969C4.47567 9.45969 4.18018 9.75519 4.18018 10.1197H5.50018ZM17.8202 10.1197C17.8202 9.75519 17.5247 9.45969 17.1602 9.45969C16.7957 9.45969 16.5002 9.75519 16.5002 10.1197H17.8202ZM8.36018 4.17969C6.05163 4.17969 4.18018 6.05114 4.18018 8.35969H5.50018C5.50018 6.78015 6.78064 5.49969 8.36018 5.49969V4.17969ZM4.18018 8.35969V10.1197H5.50018V8.35969H4.18018ZM8.36018 5.49969H13.6402V4.17969H8.36018V5.49969ZM13.6402 5.49969C15.2197 5.49969 16.5002 6.78015 16.5002 8.35969H17.8202C17.8202 6.05114 15.9488 4.17969 13.6402 4.17969V5.49969ZM16.5002 8.35969V10.1197H17.8202V8.35969H16.5002ZM7.70018 4.83969V10.1197H9.02018V4.83969H7.70018ZM8.36018 9.45969H4.84018V10.7797H8.36018V9.45969ZM8.36018 10.7797H17.1602V9.45969H8.36018V10.7797ZM4.18018 10.1197V13.6397H5.50018V10.1197H4.18018ZM4.18018 13.6397C4.18018 15.9483 6.05163 17.8197 8.36018 17.8197V16.4997C6.78064 16.4997 5.50018 15.2192 5.50018 13.6397H4.18018ZM8.36018 17.8197H13.6402V16.4997H8.36018V17.8197ZM13.6402 17.8197C15.9488 17.8197 17.8202 15.9483 17.8202 13.6397H16.5002C16.5002 15.2192 15.2197 16.4997 13.6402 16.4997V17.8197ZM17.8202 13.6397V10.1197H16.5002V13.6397H17.8202Z" fill="white"/>
</svg>
