<svg width="25" height="25" viewBox="0 0 25 25" fill="none" xmlns="http://www.w3.org/2000/svg">
<path d="M12.4792 23.2564C11.0643 23.2591 9.66284 22.982 8.35532 22.4413C7.0478 21.9006 5.86006 21.1068 4.86028 20.1056C0.658553 15.9039 0.658553 9.06763 4.86028 4.86592C5.85854 3.86203 7.04604 3.06612 8.354 2.52424C9.66191 1.98235 11.0644 1.70527 12.4801 1.70902C15.3585 1.70902 18.0646 2.82971 20.0991 4.86592C22.1344 6.90127 23.256 9.60727 23.256 12.4857C23.256 15.3642 22.1353 18.0702 20.0991 20.1056C19.0991 21.1068 17.9112 21.9006 16.6036 22.4413C15.2959 22.982 13.8943 23.259 12.4792 23.2564ZM12.4801 3.43316C11.2908 3.42978 10.1127 3.66242 9.01396 4.1176C7.91523 4.57278 6.91772 5.24145 6.07925 6.08486C4.36976 7.79438 3.42838 10.0676 3.42838 12.4857C3.42838 14.9039 4.36976 17.1763 6.07925 18.8866C9.60854 22.4159 15.3517 22.4168 18.8801 18.8866C20.5896 17.1771 21.5318 14.9039 21.5318 12.4857C21.5318 10.0676 20.5904 7.79521 18.8801 6.08486C18.0416 5.2417 17.0442 4.5732 15.9457 4.11804C14.8471 3.66287 13.6692 3.43009 12.4801 3.43316Z" fill="black"/>
<path d="M8.8221 17.0044C8.65144 17.0048 8.4845 16.9544 8.34251 16.8598C8.20051 16.7651 8.08982 16.6304 8.02454 16.4727C7.95921 16.3151 7.94226 16.1415 7.97571 15.9742C8.00921 15.8069 8.09168 15.6533 8.21262 15.5328L15.5273 8.2182C15.6073 8.13817 15.7023 8.07469 15.8069 8.03133C15.9115 7.98802 16.0236 7.96576 16.1367 7.96576C16.2499 7.96576 16.362 7.98802 16.4666 8.03133C16.5712 8.07469 16.6662 8.13817 16.7462 8.2182C16.8262 8.29823 16.8898 8.39325 16.9331 8.49784C16.9764 8.60243 16.9987 8.71449 16.9987 8.82767C16.9987 8.94086 16.9764 9.05297 16.9331 9.15756C16.8898 9.2621 16.8262 9.35712 16.7462 9.43715L9.43157 16.7518C9.35173 16.8322 9.25676 16.8958 9.15213 16.9392C9.04754 16.9826 8.93533 17.0047 8.8221 17.0044Z" fill="black"/>
<path d="M16.1373 17.0044C16.0241 17.0045 15.912 16.9823 15.8074 16.9389C15.7027 16.8956 15.6078 16.832 15.5278 16.7518L8.21313 9.43715C8.13311 9.35712 8.06963 9.2621 8.02632 9.15756C7.98301 9.05297 7.96069 8.94086 7.96069 8.82767C7.96069 8.71449 7.98301 8.60243 8.02632 8.49784C8.06963 8.39325 8.13311 8.29823 8.21313 8.2182C8.29321 8.13817 8.38823 8.07469 8.49277 8.03133C8.59736 7.98802 8.70947 7.96576 8.82266 7.96576C8.93584 7.96576 9.0479 7.98802 9.15249 8.03133C9.25708 8.07469 9.3521 8.13817 9.43213 8.2182L16.7468 15.5328C16.8677 15.6533 16.9502 15.8069 16.9836 15.9742C17.0171 16.1415 17.0001 16.3151 16.9349 16.4727C16.8695 16.6304 16.7589 16.7651 16.6169 16.8598C16.4749 16.9544 16.308 17.0048 16.1373 17.0044Z" fill="black"/>
</svg>
