<svg width="20" height="20" viewBox="0 0 20 20" fill="none" xmlns="http://www.w3.org/2000/svg">
<path d="M10 6.09375C7.84605 6.09375 6.09375 7.84609 6.09375 10C6.09375 12.1539 7.84605 13.9062 10 13.9062C12.1539 13.9062 13.9062 12.1539 13.9062 10C13.9062 7.84609 12.1539 6.09375 10 6.09375ZM10 12.3438C8.70766 12.3438 7.65625 11.2923 7.65625 10C7.65625 8.70766 8.70766 7.65625 10 7.65625C11.2923 7.65625 12.3438 8.70766 12.3438 10C12.3438 11.2923 11.2923 12.3438 10 12.3438Z" fill="black"/>
<path d="M19.7425 9.58684C18.9764 8.35731 15.0777 2.96875 10 2.96875C4.92344 2.96875 1.02367 8.35723 0.257461 9.58684L0 10L0.257461 10.4132C1.02359 11.6427 4.9223 17.0312 10 17.0312C15.0766 17.0312 18.9763 11.6428 19.7425 10.4132L20 10L19.7425 9.58684ZM10 15.4688C6.06109 15.4688 2.81789 11.3377 1.87078 9.99937C2.81613 8.65992 6.05102 4.53125 10 4.53125C13.9386 4.53125 17.1817 8.66168 18.1292 10.0006C17.1839 11.3401 13.949 15.4688 10 15.4688Z" fill="black"/>
</svg>
