<svg width="36" height="36" viewBox="0 0 36 36" fill="none" xmlns="http://www.w3.org/2000/svg">
<path d="M23.4008 16.5992H19.8008V12.9992C19.8008 12.5218 19.6111 12.064 19.2736 11.7264C18.936 11.3889 18.4782 11.1992 18.0008 11.1992C17.5234 11.1992 17.0656 11.3889 16.728 11.7264C16.3904 12.064 16.2008 12.5218 16.2008 12.9992V16.5992H12.6008C12.1234 16.5992 11.6656 16.7889 11.328 17.1264C10.9904 17.464 10.8008 17.9218 10.8008 18.3992C10.8008 18.8766 10.9904 19.3344 11.328 19.672C11.6656 20.0096 12.1234 20.1992 12.6008 20.1992H16.2008V23.7992C16.2008 24.2766 16.3904 24.7344 16.728 25.072C17.0656 25.4096 17.5234 25.5992 18.0008 25.5992C18.4782 25.5992 18.936 25.4096 19.2736 25.072C19.6111 24.7344 19.8008 24.2766 19.8008 23.7992V20.1992H23.4008C23.8782 20.1992 24.336 20.0096 24.6736 19.672C25.0111 19.3344 25.2008 18.8766 25.2008 18.3992C25.2008 17.9218 25.0111 17.464 24.6736 17.1264C24.336 16.7889 23.8782 16.5992 23.4008 16.5992Z" fill="#0049AC"/>
<path d="M18 0C14.4399 0 10.9598 1.05568 7.99974 3.03355C5.03966 5.01141 2.73255 7.82263 1.37018 11.1117C0.00779918 14.4008 -0.348661 18.02 0.345873 21.5116C1.04041 25.0033 2.75474 28.2106 5.27209 30.7279C7.78943 33.2453 10.9967 34.9596 14.4884 35.6541C17.98 36.3487 21.5992 35.9922 24.8883 34.6298C28.1774 33.2674 30.9886 30.9603 32.9665 28.0003C34.9443 25.0402 36 21.5601 36 18C36 15.6362 35.5344 13.2956 34.6298 11.1117C33.7253 8.92784 32.3994 6.94353 30.7279 5.27208C29.0565 3.60062 27.0722 2.27475 24.8883 1.37017C22.7044 0.465584 20.3638 0 18 0ZM18 32.4C15.152 32.4 12.3679 31.5554 9.99979 29.9732C7.63173 28.3909 5.78604 26.1419 4.69614 23.5106C3.60624 20.8794 3.32107 17.984 3.8767 15.1907C4.43233 12.3974 5.80379 9.83154 7.81767 7.81766C9.83154 5.80378 12.3974 4.43232 15.1907 3.87669C17.984 3.32106 20.8794 3.60623 23.5106 4.69613C26.1419 5.78604 28.3909 7.63172 29.9732 9.99979C31.5555 12.3679 32.4 15.1519 32.4 18C32.4 21.8191 30.8829 25.4818 28.1823 28.1823C25.4818 30.8829 21.8191 32.4 18 32.4Z" fill="#0049AC"/>
</svg>
