<svg width="13" height="12" viewBox="0 0 13 12" fill="none" xmlns="http://www.w3.org/2000/svg">
<path d="M11.7267 11.0807H0.427723C0.19604 11.0807 0 11.2767 0 11.5084C0 11.7401 0.19604 11.9361 0.427723 11.9361H11.7267C11.9584 11.9361 12.1545 11.7401 12.1545 11.5084C12.1545 11.2767 11.9584 11.0807 11.7267 11.0807ZM0.0178218 7.33812L0 9.35198C0 9.45891 0.0356437 9.58366 0.124753 9.65495C0.213862 9.72624 0.320792 9.7797 0.427723 9.7797L2.44158 9.76188C2.54851 9.76188 2.65545 9.70842 2.74455 9.63713L9.6594 2.72228C9.8198 2.56188 9.8198 2.27673 9.6594 2.11634L7.66337 0.120297C7.50297 -0.040099 7.21782 -0.040099 7.05743 0.120297L5.66733 1.5104L0.142574 7.03515C0.0534655 7.12426 0.0178218 7.23119 0.0178218 7.33812ZM8.75049 2.41931L7.96634 3.20346L6.57624 1.81337L7.3604 1.02921L8.75049 2.41931ZM0.873267 7.51634L5.9703 2.41931L7.3604 3.80941L2.26337 8.90644H0.873267V7.51634Z" fill="#18498A"/>
</svg>
